<svg xmlns="http://www.w3.org/2000/svg" width="532.258" height="530.532" viewBox="0 0 532.258 530.532">
  <g id="noun-certificate-4755269" transform="translate(-83.861 -14.738)">
    <path id="Caminho_75" data-name="Caminho 75" d="M237.28,377.27H94.58a10.726,10.726,0,0,1-10.719-10.719V25.441a10.7,10.7,0,0,1,10.719-10.7H605.4a10.713,10.713,0,0,1,10.719,10.7v341.11A10.716,10.716,0,0,1,605.4,377.27H462.7a112.366,112.366,0,0,1-15.793,47.812l46.922,87.211a10.695,10.695,0,0,1-12.969,15.152L431.3,512.039l-12.836,27.1a10.682,10.682,0,0,1-14.23,5.106A10.5,10.5,0,0,1,400.1,540.8l-.016.016-43.848-61.238c-2.082.117-4.168.168-6.266.168s-4.184-.066-6.266-.168L299.86,540.813l-.016-.016a10.693,10.693,0,0,1-18.363-1.66l-12.836-27.1-49.559,15.406a10.695,10.695,0,0,1-12.969-15.152l46.922-87.211a112.367,112.367,0,0,1-15.793-47.812Zm112.71,38.809a10.711,10.711,0,1,1,0,21.422,70.943,70.943,0,1,1,70.945-70.945,10.711,10.711,0,1,1-21.422,0,49.547,49.547,0,1,0-49.543,49.527Zm-29.871,59.707A113.031,113.031,0,0,1,269.935,446.6q-1.359-1.359-2.672-2.773L237.357,499.4l33.867-10.516a10.679,10.679,0,0,1,12.8,5.645l9.023,19.035,27.066-37.8Zm112.59-31.953c-.875.941-1.781,1.863-2.672,2.773a113.235,113.235,0,0,1-50.184,29.184l27.066,37.8,9.023-19.035a10.688,10.688,0,0,1,12.8-5.645l33.867,10.516L432.7,443.854Zm29.988-88h131.98V36.163H105.267v319.67h131.98a113.225,113.225,0,0,1,225.43,0Zm-47.812-54.2a91.786,91.786,0,1,0,26.879,64.9A91.485,91.485,0,0,0,414.885,301.634Zm-232.09-72.172a10.711,10.711,0,0,1,0-21.422H532.3a10.711,10.711,0,1,1,0,21.422Zm0-67.672a10.711,10.711,0,0,1,0-21.422H532.3a10.711,10.711,0,1,1,0,21.422Zm42.84-67.672a10.711,10.711,0,0,1,0-21.422h263.81a10.711,10.711,0,0,1,0,21.422Z" fill="#eb6f00"/>
  </g>
</svg>
