<svg xmlns="http://www.w3.org/2000/svg" width="420.005" height="559.991" viewBox="0 0 420.005 559.991">
  <path id="noun-energy-3646578" d="M441.34,2.266a17.5,17.5,0,0,1,8.34,19.6L401.242,210h141.25a17.5,17.5,0,0,1,11.489,30.7l-362.07,315a17.5,17.5,0,0,1-27.5-20.269L261.7,315.007H157.49a17.5,17.5,0,0,1-12.481-29.765l275.23-280a17.5,17.5,0,0,1,21.09-2.965ZM199.24,280h89.32a17.5,17.5,0,0,1,16.012,24.566L228.1,477.832,495.723,245H378.673a17.5,17.5,0,0,1-16.949-21.863l37.82-146.91Z" transform="translate(-139.989 -0.012)" fill="#eb6f00" fill-rule="evenodd"/>
</svg>
