<svg xmlns="http://www.w3.org/2000/svg" width="430.918" height="555.338" viewBox="0 0 430.918 555.338">
  <g id="noun-pdf-1163825" transform="translate(-134.544 -2.332)">
    <path id="Caminho_76" data-name="Caminho 76" d="M143.9,557.67H556.13a9.329,9.329,0,0,0,9.332-9.332V11.668a9.344,9.344,0,0,0-9.332-9.332l-243.79,0a9.508,9.508,0,0,0-3.57.723,9.322,9.322,0,0,0-2.637,1.75c-.117.117-.281.141-.4.258l-168.46,168.46c-.141.164-.187.352-.348.516a8.751,8.751,0,0,0-2.383,6.09v368.2a9.353,9.353,0,0,0,9.359,9.336ZM546.77,539H153.23V184.382c48.16-44.078,123.32-8.238,124.09-7.887a9.339,9.339,0,0,0,12.649-12.179c-.352-.816-34.324-79.309,26.551-143.31H546.77ZM267.15,70.072c-9.172,32.828-5.156,63.3-.516,82.2-17.824-5.879-46.012-12.062-74.8-6.883Z" fill="#eb6f00"/>
    <path id="Caminho_77" data-name="Caminho 77" d="M282.03,251.86a33.589,33.589,0,0,0-12.18-8.773,43.466,43.466,0,0,0-17.359-3.2H199.827v134.77h35.117V323.329h12.273q21.7,0,32.945-10.477,11.232-10.465,11.223-31.43a56.848,56.848,0,0,0-2.262-16.309,35.284,35.284,0,0,0-7.094-13.258Zm-30.383,42.188c-2.332,2.66-5.691,3.965-10.1,3.965h-6.605V265.185h6.6q13.582,0,13.578,16.426c0,5.648-1.137,9.8-3.473,12.438Z" fill="#eb6f00"/>
    <path id="Caminho_78" data-name="Caminho 78" d="M307.23,239.87V374.64h50.961q15.293,0,23.8-5.555a34.487,34.487,0,0,0,12.738-14.934,64.271,64.271,0,0,0,5.2-21.488c.629-8.145.957-16.59.957-25.387q0-13.23-.957-25.387a64.082,64.082,0,0,0-5.2-21.512,34.615,34.615,0,0,0-12.738-14.91q-8.473-5.566-23.8-5.578H307.23Zm54.832,32.668a47.81,47.81,0,0,1,2.078,12.832c.328,5.555.488,12.832.488,21.91q0,13.582-.488,21.887A47.754,47.754,0,0,1,362.062,342c-1.051,3.012-2.613,4.992-4.621,5.949a19.5,19.5,0,0,1-8.121,1.422h-6.977V265.159h6.977a19.54,19.54,0,0,1,8.121,1.4C359.472,267.518,361.011,269.5,362.062,272.538Z" fill="#eb6f00"/>
    <path id="Caminho_79" data-name="Caminho 79" d="M455.42,319.15h41.906V291.6H455.42V268.564h44.75v-28.7H420.3v134.77H455.42Z" fill="#eb6f00"/>
  </g>
</svg>
