<svg xmlns="http://www.w3.org/2000/svg" width="455.265" height="315.083" viewBox="0 0 455.265 315.083">
  <g id="noun-sensor-3531174" transform="translate(-122.368 -122.417)">
    <path id="Caminho_65" data-name="Caminho 65" d="M402.5,250.69h-105a26.247,26.247,0,0,0-26.25,26.25V395.42a26.253,26.253,0,0,0,26.25,26.25h105a26.253,26.253,0,0,0,26.25-26.25V276.68a26.248,26.248,0,0,0-26.25-25.989Zm8.75,144.73a8.749,8.749,0,0,1-8.75,8.75h-105a8.751,8.751,0,0,1-8.75-8.75V276.68a8.751,8.751,0,0,1,8.75-8.75h105a8.749,8.749,0,0,1,8.75,8.75Z" fill="#eb6f00"/>
    <path id="Caminho_66" data-name="Caminho 66" d="M140,336a111.835,111.835,0,0,1,34.125-80.238c2.1-2.012,4.2-3.852,6.387-5.687a8.841,8.841,0,1,0-11.024-13.824,89.424,89.424,0,0,0-7.527,6.648A128.889,128.889,0,0,0,169.4,435.4a8.728,8.728,0,1,0,11.2-13.387A111.906,111.906,0,0,1,140,336Z" fill="#eb6f00"/>
    <path id="Caminho_67" data-name="Caminho 67" d="M371.61,284.73H328.383a26.247,26.247,0,0,0-26.25,26.25v50.4a26.247,26.247,0,0,0,26.25,26.25H371.61a26.247,26.247,0,0,0,26.25-26.25V310.714a26.248,26.248,0,0,0-26.25-25.985Zm8.75,76.648a8.749,8.749,0,0,1-8.75,8.75H328.383a8.751,8.751,0,0,1-8.75-8.75V310.714a8.751,8.751,0,0,1,8.75-8.75H371.61a8.749,8.749,0,0,1,8.75,8.75Z" fill="#eb6f00"/>
    <path id="Caminho_68" data-name="Caminho 68" d="M290.06,163.8a81.291,81.291,0,0,1,114.976,0,8.755,8.755,0,1,0,12.422-12.34,98.879,98.879,0,0,0-140,0,8.756,8.756,0,0,0,12.426,12.34Z" fill="#eb6f00"/>
    <path id="Caminho_69" data-name="Caminho 69" d="M385.79,191.89a8.705,8.705,0,0,0,6.125-14.875,62.746,62.746,0,0,0-88.9,0,8.787,8.787,0,0,0,12.512,12.34,45.065,45.065,0,0,1,63.964,0,8.748,8.748,0,0,0,6.3,2.535Z" fill="#eb6f00"/>
    <path id="Caminho_70" data-name="Caminho 70" d="M328.48,212.36a19.073,19.073,0,1,0,19.074-18.637A18.806,18.806,0,0,0,328.48,212.36Z" fill="#eb6f00"/>
    <path id="Caminho_71" data-name="Caminho 71" d="M211.49,336a62.472,62.472,0,0,1,19.25-45.062,61.073,61.073,0,0,1,8.75-7.262,8.824,8.824,0,1,0-9.625-14.789,82.907,82.907,0,0,0-11.113,9.539A80.064,80.064,0,0,0,229.865,402.5a8.76,8.76,0,1,0,9.8-14.523A63.08,63.08,0,0,1,211.49,336Z" fill="#eb6f00"/>
    <path id="Caminho_72" data-name="Caminho 72" d="M538.04,243.25a88.721,88.721,0,0,0-7.527-6.648,8.749,8.749,0,1,0-11.023,13.473c2.188,1.836,4.289,3.676,6.3,5.688a111.3,111.3,0,0,1-6.39,166.25,8.763,8.763,0,0,0,11.2,13.477,128.889,128.889,0,0,0,7.438-192.5Z" fill="#eb6f00"/>
    <path id="Caminho_73" data-name="Caminho 73" d="M470.14,269.24a8.725,8.725,0,1,0-9.8,14.437,61.074,61.074,0,0,1,8.75,7.262,62.558,62.558,0,0,1-8.75,97.387,8.762,8.762,0,0,0,9.8,14.527,80.062,80.062,0,0,0,11.113-124.426,82.9,82.9,0,0,0-11.113-9.187Z" fill="#eb6f00"/>
    <path id="Caminho_74" data-name="Caminho 74" d="M350,327.51a8.749,8.749,0,1,0,6.188,2.563A8.745,8.745,0,0,0,350,327.51Z" fill="#eb6f00"/>
  </g>
</svg>
