<svg xmlns="http://www.w3.org/2000/svg" width="194.461" height="422.526" viewBox="0 0 194.461 422.526">
  <g id="noun-temperature-3494689" transform="translate(-252.765 -68.738)">
    <path id="Caminho_62" data-name="Caminho 62" d="M349.91,68.738a54.558,54.558,0,0,0-54.43,54.43v196.88c-23.863,18.211-42.672,43.414-42.715,73.895v.176a97.269,97.269,0,0,0,97.145,97.145c53.555,0,97.316-43.59,97.316-97.145v-.176c-.043-30.48-19.02-55.68-42.891-73.895V123.168a54.558,54.558,0,0,0-54.43-54.43Zm0,23.254a30.9,30.9,0,0,1,31.176,31.176v203.59l5.855,3.445a73.981,73.981,0,1,1-73.9,0l5.855-3.445V123.168a30.754,30.754,0,0,1,31-31.176Z" fill="#eb6f00"/>
    <path id="Caminho_63" data-name="Caminho 63" d="M361.62,204.41v175c0,6.441-6.441,11.668-11.668,11.668a11.669,11.669,0,0,1-11.668-11.668v-175c0-6.441,6.441-11.668,11.668-11.668A11.669,11.669,0,0,1,361.62,204.41Z" fill="#eb6f00"/>
    <path id="Caminho_64" data-name="Caminho 64" d="M400.68,394.94a50.717,50.717,0,1,1-50.715-50.719A50.716,50.716,0,0,1,400.68,394.94" fill="#eb6f00"/>
  </g>
</svg>
