<svg xmlns="http://www.w3.org/2000/svg" width="349.995" height="490.253" viewBox="0 0 349.995 490.253">
  <path id="noun-usb-4782820" d="M525,175a52.5,52.5,0,1,0-71.031,49A105.108,105.108,0,0,1,367.5,313.426V94.746l5.129,5.129v0a17.5,17.5,0,0,0,24.742-24.742l-35-35a17.493,17.493,0,0,0-24.742,0l-35,35a17.5,17.5,0,0,0,24.742,24.742l5.129-5.125V350a87.51,87.51,0,0,1-86.1-73.657,52.637,52.637,0,1,0-35.453.735A122.62,122.62,0,0,0,332.5,385v2.484a70,70,0,1,0,35,0V348.79A140.184,140.184,0,0,0,489.246,224.54,52.493,52.493,0,0,0,525,175ZM227.5,210a17.5,17.5,0,1,1-12.375,5.125A17.5,17.5,0,0,1,227.5,210ZM385,455a35,35,0,1,1-10.25-24.75A35.013,35.013,0,0,1,385,455Zm87.5-262.5a17.5,17.5,0,1,1,12.375-5.125A17.5,17.5,0,0,1,472.5,192.5Z" transform="translate(-175.005 -35.005)" fill="#eb6f00"/>
</svg>
